<svg width="270" height="50" viewBox="0 0 270 50" fill="none" xmlns="http://www.w3.org/2000/svg">
<g clip-path="url(#clip0_402_72)">
<path d="M25 50C38.8071 50 50 38.8071 50 25C50 11.1929 38.8071 0 25 0C11.1929 0 0 11.1929 0 25C0 38.8071 11.1929 50 25 50Z" fill="#F0F0F0"/>
<path d="M33.6957 25C33.6957 27.1739 29.8025 32.6087 25 32.6087C20.1976 32.6087 16.3044 27.1739 16.3044 25C16.3044 20.1974 20.1976 16.3044 25 16.3044C29.8025 16.3044 33.6957 20.1974 33.6957 25Z" fill="#D80027"/>
<path d="M33.6957 25C33.6957 29.8025 29.8025 33.6956 25 33.6956C20.1976 33.6956 16.3044 29.8025 16.3044 25" fill="#0052B4"/>
<path d="M34.2163 32.6863L36.5217 30.3809L38.0587 31.9179L35.7533 34.2233L34.2163 32.6863Z" fill="black"/>
<path d="M30.3728 36.5288L32.6782 34.2234L34.2152 35.7604L31.9098 38.0658L30.3728 36.5288Z" fill="black"/>
<path d="M38.8275 37.2969L41.1329 34.9915L42.6699 36.5285L40.3645 38.8339L38.8275 37.2969Z" fill="black"/>
<path d="M34.9841 41.1401L37.2895 38.8347L38.8265 40.3716L36.5211 42.677L34.9841 41.1401Z" fill="black"/>
<path d="M36.5217 34.9918L38.8271 32.6864L40.3641 34.2234L38.0587 36.5288L36.5217 34.9918Z" fill="black"/>
<path d="M32.6793 38.8343L34.9847 36.5289L36.5217 38.0658L34.2163 40.3713L32.6793 38.8343Z" fill="black"/>
<path d="M38.8376 17.3179L32.6899 11.1701L34.2268 9.63311L40.3746 15.7809L38.8376 17.3179Z" fill="black"/>
<path d="M32.6887 15.7816L30.3833 13.4761L31.9202 11.9392L34.2256 14.2447L32.6887 15.7816Z" fill="black"/>
<path d="M36.5311 19.6249L34.2257 17.3195L35.7626 15.7826L38.068 18.088L36.5311 19.6249Z" fill="black"/>
<path d="M37.2991 11.1699L34.9937 8.86451L36.5306 7.32754L38.836 9.63296L37.2991 11.1699Z" fill="black"/>
<path d="M41.1436 15.0137L38.8381 12.7083L40.3751 11.1713L42.6805 13.4767L41.1436 15.0137Z" fill="black"/>
<path d="M8.86279 34.9875L15.0106 41.1353L13.4736 42.6722L7.32583 36.5245L8.86279 34.9875Z" fill="black"/>
<path d="M15.0103 36.5233L17.3157 38.8287L15.7788 40.3656L13.4734 38.0601L15.0103 36.5233Z" fill="black"/>
<path d="M11.1675 32.6816L13.4729 34.987L11.9359 36.524L9.63052 34.2185L11.1675 32.6816Z" fill="black"/>
<path d="M13.4731 30.3755L19.6209 36.5233L18.084 38.0603L11.9362 31.9125L13.4731 30.3755Z" fill="black"/>
<path d="M15.0099 8.85974L8.8621 15.0075L7.32513 13.4706L13.4729 7.32278L15.0099 8.85974Z" fill="black"/>
<path d="M17.3153 11.1649L11.1675 17.3127L9.63055 15.7757L15.7783 9.62795L17.3153 11.1649Z" fill="black"/>
<path d="M19.6229 13.4717L13.4751 19.6195L11.9382 18.0826L18.086 11.9348L19.6229 13.4717Z" fill="black"/>
</g>
<path d="M102.516 11.9062V37.5H96.5918V18.5859L90.7559 20.291V15.791L101.971 11.9062H102.516ZM128.057 22.3652V27.041C128.057 28.8809 127.84 30.4805 127.406 31.8398C126.984 33.1992 126.375 34.3242 125.578 35.2148C124.793 36.1055 123.855 36.7676 122.766 37.2012C121.676 37.6348 120.475 37.8516 119.162 37.8516C118.107 37.8516 117.123 37.7168 116.209 37.4473C115.295 37.166 114.469 36.7441 113.73 36.1816C113.004 35.6074 112.377 34.8926 111.85 34.0371C111.322 33.1816 110.918 32.1738 110.637 31.0137C110.355 29.8418 110.215 28.5176 110.215 27.041V22.3652C110.215 20.5137 110.426 18.9141 110.848 17.5664C111.281 16.207 111.896 15.082 112.693 14.1914C113.49 13.3008 114.434 12.6387 115.523 12.2051C116.613 11.7715 117.814 11.5547 119.127 11.5547C120.182 11.5547 121.16 11.6953 122.062 11.9766C122.977 12.2461 123.803 12.668 124.541 13.2422C125.279 13.8047 125.906 14.5137 126.422 15.3691C126.949 16.2246 127.354 17.2383 127.635 18.4102C127.916 19.5703 128.057 20.8887 128.057 22.3652ZM122.133 27.7617V21.6094C122.133 20.7891 122.086 20.0742 121.992 19.4648C121.91 18.8555 121.781 18.3398 121.605 17.918C121.441 17.4961 121.236 17.1562 120.99 16.8984C120.744 16.6289 120.463 16.4355 120.146 16.3184C119.842 16.1895 119.502 16.125 119.127 16.125C118.658 16.125 118.236 16.2246 117.861 16.4238C117.498 16.6113 117.188 16.916 116.93 17.3379C116.672 17.7598 116.473 18.3223 116.332 19.0254C116.203 19.7285 116.139 20.5898 116.139 21.6094V27.7617C116.139 28.5938 116.18 29.3203 116.262 29.9414C116.355 30.5508 116.484 31.0723 116.648 31.5059C116.824 31.9277 117.035 32.2734 117.281 32.543C117.527 32.8008 117.809 32.9883 118.125 33.1055C118.441 33.2227 118.787 33.2812 119.162 33.2812C119.619 33.2812 120.029 33.1875 120.393 33C120.756 32.8125 121.066 32.5078 121.324 32.0859C121.594 31.6523 121.793 31.084 121.922 30.3809C122.062 29.666 122.133 28.793 122.133 27.7617ZM131.66 34.7227C131.66 33.8789 131.965 33.1758 132.574 32.6133C133.184 32.0391 133.969 31.752 134.93 31.752C135.902 31.752 136.688 32.0391 137.285 32.6133C137.895 33.1758 138.199 33.8789 138.199 34.7227C138.199 35.5664 137.895 36.2754 137.285 36.8496C136.688 37.4121 135.902 37.6934 134.93 37.6934C133.969 37.6934 133.184 37.4121 132.574 36.8496C131.965 36.2754 131.66 35.5664 131.66 34.7227ZM131.66 20.6953C131.66 19.8516 131.965 19.1484 132.574 18.5859C133.184 18.0117 133.969 17.7246 134.93 17.7246C135.902 17.7246 136.688 18.0117 137.285 18.5859C137.895 19.1484 138.199 19.8516 138.199 20.6953C138.199 21.5391 137.895 22.248 137.285 22.8223C136.688 23.3848 135.902 23.666 134.93 23.666C133.969 23.666 133.184 23.3848 132.574 22.8223C131.965 22.248 131.66 21.5391 131.66 20.6953ZM159.768 22.3652V27.041C159.768 28.8809 159.551 30.4805 159.117 31.8398C158.695 33.1992 158.086 34.3242 157.289 35.2148C156.504 36.1055 155.566 36.7676 154.477 37.2012C153.387 37.6348 152.186 37.8516 150.873 37.8516C149.818 37.8516 148.834 37.7168 147.92 37.4473C147.006 37.166 146.18 36.7441 145.441 36.1816C144.715 35.6074 144.088 34.8926 143.561 34.0371C143.033 33.1816 142.629 32.1738 142.348 31.0137C142.066 29.8418 141.926 28.5176 141.926 27.041V22.3652C141.926 20.5137 142.137 18.9141 142.559 17.5664C142.992 16.207 143.607 15.082 144.404 14.1914C145.201 13.3008 146.145 12.6387 147.234 12.2051C148.324 11.7715 149.525 11.5547 150.838 11.5547C151.893 11.5547 152.871 11.6953 153.773 11.9766C154.688 12.2461 155.514 12.668 156.252 13.2422C156.99 13.8047 157.617 14.5137 158.133 15.3691C158.66 16.2246 159.064 17.2383 159.346 18.4102C159.627 19.5703 159.768 20.8887 159.768 22.3652ZM153.844 27.7617V21.6094C153.844 20.7891 153.797 20.0742 153.703 19.4648C153.621 18.8555 153.492 18.3398 153.316 17.918C153.152 17.4961 152.947 17.1562 152.701 16.8984C152.455 16.6289 152.174 16.4355 151.857 16.3184C151.553 16.1895 151.213 16.125 150.838 16.125C150.369 16.125 149.947 16.2246 149.572 16.4238C149.209 16.6113 148.898 16.916 148.641 17.3379C148.383 17.7598 148.184 18.3223 148.043 19.0254C147.914 19.7285 147.85 20.5898 147.85 21.6094V27.7617C147.85 28.5938 147.891 29.3203 147.973 29.9414C148.066 30.5508 148.195 31.0723 148.359 31.5059C148.535 31.9277 148.746 32.2734 148.992 32.543C149.238 32.8008 149.52 32.9883 149.836 33.1055C150.152 33.2227 150.498 33.2812 150.873 33.2812C151.33 33.2812 151.74 33.1875 152.104 33C152.467 32.8125 152.777 32.5078 153.035 32.0859C153.305 31.6523 153.504 31.084 153.633 30.3809C153.773 29.666 153.844 28.793 153.844 27.7617ZM180.65 22.3652V27.041C180.65 28.8809 180.434 30.4805 180 31.8398C179.578 33.1992 178.969 34.3242 178.172 35.2148C177.387 36.1055 176.449 36.7676 175.359 37.2012C174.27 37.6348 173.068 37.8516 171.756 37.8516C170.701 37.8516 169.717 37.7168 168.803 37.4473C167.889 37.166 167.062 36.7441 166.324 36.1816C165.598 35.6074 164.971 34.8926 164.443 34.0371C163.916 33.1816 163.512 32.1738 163.23 31.0137C162.949 29.8418 162.809 28.5176 162.809 27.041V22.3652C162.809 20.5137 163.02 18.9141 163.441 17.5664C163.875 16.207 164.49 15.082 165.287 14.1914C166.084 13.3008 167.027 12.6387 168.117 12.2051C169.207 11.7715 170.408 11.5547 171.721 11.5547C172.775 11.5547 173.754 11.6953 174.656 11.9766C175.57 12.2461 176.396 12.668 177.135 13.2422C177.873 13.8047 178.5 14.5137 179.016 15.3691C179.543 16.2246 179.947 17.2383 180.229 18.4102C180.51 19.5703 180.65 20.8887 180.65 22.3652ZM174.727 27.7617V21.6094C174.727 20.7891 174.68 20.0742 174.586 19.4648C174.504 18.8555 174.375 18.3398 174.199 17.918C174.035 17.4961 173.83 17.1562 173.584 16.8984C173.338 16.6289 173.057 16.4355 172.74 16.3184C172.436 16.1895 172.096 16.125 171.721 16.125C171.252 16.125 170.83 16.2246 170.455 16.4238C170.092 16.6113 169.781 16.916 169.523 17.3379C169.266 17.7598 169.066 18.3223 168.926 19.0254C168.797 19.7285 168.732 20.5898 168.732 21.6094V27.7617C168.732 28.5938 168.773 29.3203 168.855 29.9414C168.949 30.5508 169.078 31.0723 169.242 31.5059C169.418 31.9277 169.629 32.2734 169.875 32.543C170.121 32.8008 170.402 32.9883 170.719 33.1055C171.035 33.2227 171.381 33.2812 171.756 33.2812C172.213 33.2812 172.623 33.1875 172.986 33C173.35 32.8125 173.66 32.5078 173.918 32.0859C174.188 31.6523 174.387 31.084 174.516 30.3809C174.656 29.666 174.727 28.793 174.727 27.7617Z" fill="#E1E1E6"/>
<g clip-path="url(#clip1_402_72)">
<path d="M220 25C220 28.058 220.55 30.9873 221.555 33.6956L245 34.7826L268.445 33.6957C269.45 30.9873 270 28.058 270 25C270 21.942 269.45 19.0127 268.445 16.3044L245 15.2174L221.555 16.3043C220.55 19.0127 220 21.942 220 25V25Z" fill="#FFDA44"/>
<path d="M245 0C234.251 0 225.087 6.78437 221.555 16.3044H268.445C264.913 6.78437 255.749 0 245 0V0Z" fill="#D80027"/>
<path d="M268.445 33.6956H221.555C225.087 43.2155 234.251 50 245 50C255.749 50 264.913 43.2155 268.445 33.6956Z" fill="#496E2D"/>
<path d="M245 16.3044L247.158 22.947H254.143L248.492 27.0527L250.651 33.6956L245 29.5901L239.349 33.6956L241.507 27.0527L235.857 22.947H242.842L245 16.3044Z" fill="black"/>
</g>
<defs>
<clipPath id="clip0_402_72">
<rect width="50" height="50" fill="white"/>
</clipPath>
<clipPath id="clip1_402_72">
<rect width="50" height="50" fill="white" transform="translate(220)"/>
</clipPath>
</defs>
</svg>
